<?xml version="1.0" encoding="UTF-8" standalone="no"?>
<svg
   viewBox="0 0 24 24"
   version="1.1"
   id="svg1"
   sodipodi:docname="logo.svg"
   inkscape:export-filename="favicon_light_512.png"
   inkscape:export-xdpi="2048"
   inkscape:export-ydpi="2048"
   inkscape:version="1.4.4 (dcaf3e7d9e, 2026-05-05)"
   xmlns:inkscape="http://www.inkscape.org/namespaces/inkscape"
   xmlns:sodipodi="http://sodipodi.sourceforge.net/DTD/sodipodi-0.dtd"
   xmlns="http://www.w3.org/2000/svg"
   xmlns:svg="http://www.w3.org/2000/svg">
  <defs
     id="defs1" />
  <sodipodi:namedview
     id="namedview1"
     pagecolor="#ffffff"
     bordercolor="#000000"
     borderopacity="0.25"
     inkscape:showpageshadow="2"
     inkscape:pageopacity="0.0"
     inkscape:pagecheckerboard="0"
     inkscape:deskcolor="#d1d1d1"
     inkscape:zoom="35.473739"
     inkscape:cx="9.8946435"
     inkscape:cy="12.614966"
     inkscape:window-width="1920"
     inkscape:window-height="1163"
     inkscape:window-x="0"
     inkscape:window-y="0"
     inkscape:window-maximized="1"
     inkscape:current-layer="svg1" />
  <path
     d="m 22.095346,2.4606606 c 0,0 -7.64,-0.37 -13.6600005,7.8799984 -4.62,6.33 -6.34,12.12 -6.34,12.12 l 1.94,-1 c 1.44,-2.5 2.19,-3.53 3.6,-5 2.5300005,0.74 5.1700005,0.65 7.4600005,-2 -2,-0.56 -3.6,-0.43 -5.9600009,-0.19 2.6500009,-1.81 4.4600009,-2.21 6.9600009,-1.81 l 1,-2 c -1.8,-0.34 -3,-0.37 -4.78,0.04 1.97,-1.3899984 3.34,-2.1699984 5.78,-2.0399984 l 1.21,-1.93 c -1.56,-0.11 -2.5,0.06 -4.29,0.5 1.61,-1.46 3.08,-2.12 5.22,-2.25 0,0 1.05,-1.89 1.86,-2.32 z"
     id="path1-5"
     style="fill:#000000;fill-opacity:0.245462" />
  <path
     d="M22,2C22,2 14.36,1.63 8.34,9.88C3.72,16.21 2,22 2,22L3.94,21C5.38,18.5 6.13,17.47 7.54,16C10.07,16.74 12.71,16.65 15,14C13,13.44 11.4,13.57 9.04,13.81C11.69,12 13.5,11.6 16,12L17,10C15.2,9.66 14,9.63 12.22,10.04C14.19,8.65 15.56,7.87 18,8L19.21,6.07C17.65,5.96 16.71,6.13 14.92,6.57C16.53,5.11 18,4.45 20.14,4.32C20.14,4.32 21.19,2.43 22,2Z"
     id="path1"
     style="fill:#378fe7;fill-opacity:1" />
</svg>
