<?xml version="1.0" encoding="utf-8" ?>
<!-- Material Design icons licensed under Pictogrammers Free License - https://pictogrammers.com/docs/general/license/ -->
<!-- https://github.com/Templarian/MaterialDesign/tree/master -->
<svg width="0" height="0" class="hidden">
  <defs>
    <symbol xmlns="http://www.w3.org/2000/svg" viewBox="0 0 24 24" id="pencil">
      <path
        d="M20.71,7.04C21.1,6.65 21.1,6 20.71,5.63L18.37,3.29C18,2.9 17.35,2.9 16.96,3.29L15.12,5.12L18.87,8.87M3,17.25V21H6.75L17.81,9.93L14.06,6.18L3,17.25Z"
      />
    </symbol>
    <symbol
      xmlns="http://www.w3.org/2000/svg"
      viewBox="0 0 24 24"
      id="text-box"
    >
      <path
        d="M14,17H7V15H14M17,13H7V11H17M17,9H7V7H17M19,3H5C3.89,3 3,3.89 3,5V19A2,2 0 0,0 5,21H19A2,2 0 0,0 21,19V5C21,3.89 20.1,3 19,3Z"
      />
    </symbol>
    <symbol
      xmlns="http://www.w3.org/2000/svg"
      viewBox="0 0 24 24"
      id="text-box-edit"
    >
      <path
        d="M10 19.11L12.11 17H7V15H14V15.12L16.12 13H7V11H17V12.12L18.24 10.89C18.72 10.41 19.35 10.14 20.04 10.14C20.37 10.14 20.7 10.21 21 10.33V5C21 3.89 20.1 3 19 3H5C3.89 3 3 3.89 3 5V19C3 20.11 3.9 21 5 21H10V19.11M7 7H17V9H7V7M21.7 14.35L20.7 15.35L18.65 13.3L19.65 12.3C19.86 12.09 20.21 12.09 20.42 12.3L21.7 13.58C21.91 13.79 21.91 14.14 21.7 14.35M12 19.94L18.06 13.88L20.11 15.93L14.06 22H12V19.94Z"
      />
    </symbol>
    <symbol
      xmlns="http://www.w3.org/2000/svg"
      viewBox="0 0 24 24"
      id="unfold-less-vertical"
    >
      <path
        d="M5.41,7.41L10,12L5.41,16.59L4,15.17L7.17,12L4,8.83L5.41,7.41M18.59,16.59L14,12L18.59,7.42L20,8.83L16.83,12L20,15.17L18.59,16.59Z"
      />
    </symbol>
    <symbol
      xmlns="http://www.w3.org/2000/svg"
      viewBox="0 0 24 24"
      id="export-variant"
    >
      <path
        d="M12,1L8,5H11V14H13V5H16M18,23H6C4.89,23 4,22.1 4,21V9A2,2 0 0,1 6,7H9V9H6V21H18V9H15V7H18A2,2 0 0,1 20,9V21A2,2 0 0,1 18,23Z"
      />
    </symbol>
    <symbol
      xmlns="http://www.w3.org/2000/svg"
      viewBox="0 0 24 24"
      id="file-pdf-box"
    >
      <path
        d="M19 3H5C3.9 3 3 3.9 3 5V19C3 20.1 3.9 21 5 21H19C20.1 21 21 20.1 21 19V5C21 3.9 20.1 3 19 3M9.5 11.5C9.5 12.3 8.8 13 8 13H7V15H5.5V9H8C8.8 9 9.5 9.7 9.5 10.5V11.5M14.5 13.5C14.5 14.3 13.8 15 13 15H10.5V9H13C13.8 9 14.5 9.7 14.5 10.5V13.5M18.5 10.5H17V11.5H18.5V13H17V15H15.5V9H18.5V10.5M12 10.5H13V13.5H12V10.5M7 10.5H8V11.5H7V10.5Z"
      />
    </symbol>
    <symbol
      xmlns="http://www.w3.org/2000/svg"
      viewBox="0 0 24 24"
      id="file-code"
    >
      <path
        d="M13,9H18.5L13,3.5V9M6,2H14L20,8V20A2,2 0 0,1 18,22H6C4.89,22 4,21.1 4,20V4C4,2.89 4.89,2 6,2M6.12,15.5L9.86,19.24L11.28,17.83L8.95,15.5L11.28,13.17L9.86,11.76L6.12,15.5M17.28,15.5L13.54,11.76L12.12,13.17L14.45,15.5L12.12,17.83L13.54,19.24L17.28,15.5Z"
      />
    </symbol>
    <symbol xmlns="http://www.w3.org/2000/svg" viewBox="0 0 24 24" id="wrap">
      <path
        d="M21,5H3V7H21V5M3,19H10V17H3V19M3,13H18C19,13 20,13.43 20,15C20,16.57 19,17 18,17H16V15L12,18L16,21V19H18C20.95,19 22,17.73 22,15C22,12.28 21,11 18,11H3V13Z"
      />
    </symbol>
    <symbol
      xmlns="http://www.w3.org/2000/svg"
      viewBox="0 0 24 24"
      id="wrap-disabled"
    >
      <path
        d="M16,7H3V5H16V7M3,19H16V17H3V19M22,12L18,9V11H3V13H18V15L22,12Z"
      />
    </symbol>
    <symbol
      xmlns="http://www.w3.org/2000/svg"
      viewBox="0 0 24 24"
      id="magnify-plus-outline"
    >
      <path
        d="M15.5,14L20.5,19L19,20.5L14,15.5V14.71L13.73,14.43C12.59,15.41 11.11,16 9.5,16A6.5,6.5 0 0,1 3,9.5A6.5,6.5 0 0,1 9.5,3A6.5,6.5 0 0,1 16,9.5C16,11.11 15.41,12.59 14.43,13.73L14.71,14H15.5M9.5,14C12,14 14,12 14,9.5C14,7 12,5 9.5,5C7,5 5,7 5,9.5C5,12 7,14 9.5,14M12,10H10V12H9V10H7V9H9V7H10V9H12V10Z"
      />
    </symbol>
    <symbol xmlns="http://www.w3.org/2000/svg" viewBox="0 0 24 24" id="plus">
      <path d="M19,13H13V19H11V13H5V11H11V5H13V11H19V13Z" />
    </symbol>
    <symbol xmlns="http://www.w3.org/2000/svg" viewBox="0 0 24 24" id="minus">
      <path d="M19,13H5V11H19V13Z" />
    </symbol>
    <symbol xmlns="http://www.w3.org/2000/svg" viewBox="0 0 24 24" id="restore">
      <path
        d="M13,3A9,9 0 0,0 4,12H1L4.89,15.89L4.96,16.03L9,12H6A7,7 0 0,1 13,5A7,7 0 0,1 20,12A7,7 0 0,1 13,19C11.07,19 9.32,18.21 8.06,16.94L6.64,18.36C8.27,20 10.5,21 13,21A9,9 0 0,0 22,12A9,9 0 0,0 13,3Z"
      />
    </symbol>
    <symbol xmlns="http://www.w3.org/2000/svg" viewBox="0 0 24 24" id="undo">
      <path
        d="M12.5,8C9.85,8 7.45,9 5.6,10.6L2,7V16H11L7.38,12.38C8.77,11.22 10.54,10.5 12.5,10.5C16.04,10.5 19.05,12.81 20.1,16L22.47,15.22C21.08,11.03 17.15,8 12.5,8Z"
      />
    </symbol>
    <symbol xmlns="http://www.w3.org/2000/svg" viewBox="0 0 24 24" id="redo">
      <path
        d="M18.4,10.6C16.55,9 14.15,8 11.5,8C6.85,8 2.92,11.03 1.54,15.22L3.9,16C4.95,12.81 7.95,10.5 11.5,10.5C13.45,10.5 15.23,11.22 16.62,12.38L13,16H22V7L18.4,10.6Z"
      />
    </symbol>
    <symbol xmlns="http://www.w3.org/2000/svg" viewBox="0 0 24 24" id="xml">
      <path
        d="M12.89,3L14.85,3.4L11.11,21L9.15,20.6L12.89,3M19.59,12L16,8.41V5.58L22.42,12L16,18.41V15.58L19.59,12M1.58,12L8,5.58V8.41L4.41,12L8,15.58V18.41L1.58,12Z"
      />
    </symbol>
    <symbol
      xmlns="http://www.w3.org/2000/svg"
      viewBox="0 0 24 24"
      id="language-markdown"
    >
      <path
        d="M20.56 18H3.44C2.65 18 2 17.37 2 16.59V7.41C2 6.63 2.65 6 3.44 6H20.56C21.35 6 22 6.63 22 7.41V16.59C22 17.37 21.35 18 20.56 18M6.81 15.19V11.53L8.73 13.88L10.65 11.53V15.19H12.58V8.81H10.65L8.73 11.16L6.81 8.81H4.89V15.19H6.81M19.69 12H17.77V8.81H15.85V12H13.92L16.81 15.28L19.69 12Z"
      />
    </symbol>
    <symbol
      xmlns="http://www.w3.org/2000/svg"
      viewBox="0 0 32 32"
      id="language-asciidoc"
    >
      <path d="M0 0h32v32H0z" fill="none" />
      <path
        d="M4 18V8l5.39 10Zm0 4v3.67A2.33 2.33 0 0 0 6.33 28h8.9l-3.496-6Zm12.444 0l3.177 5.444A11.88 11.88 0 0 0 26.448 22Zm11.419-4A15 15 0 0 0 28 16A12 12 0 0 0 16 4L6 3.995q-.08 0-.158.005L14 18Z"
      />
    </symbol>
  </defs>
</svg>
