<?xml version="1.0" encoding="utf-8" ?>
<!-- Material Design icons licensed under Pictogrammers Free License - https://pictogrammers.com/docs/general/license/ -->
<!-- https://github.com/Templarian/MaterialDesign/tree/master -->
<svg width="0" height="0" class="hidden">
  <defs>
    <symbol xmlns="http://www.w3.org/2000/svg" viewBox="0 0 24 24" id="eye">
      <path
        d="M12,9A3,3 0 0,0 9,12A3,3 0 0,0 12,15A3,3 0 0,0 15,12A3,3 0 0,0 12,9M12,17A5,5 0 0,1 7,12A5,5 0 0,1 12,7A5,5 0 0,1 17,12A5,5 0 0,1 12,17M12,4.5C7,4.5 2.73,7.61 1,12C2.73,16.39 7,19.5 12,19.5C17,19.5 21.27,16.39 23,12C21.27,7.61 17,4.5 12,4.5Z"
      />
    </symbol>
    <symbol xmlns="http://www.w3.org/2000/svg" viewBox="0 0 24 24" id="pencil">
      <path
        d="M20.71,7.04C21.1,6.65 21.1,6 20.71,5.63L18.37,3.29C18,2.9 17.35,2.9 16.96,3.29L15.12,5.12L18.87,8.87M3,17.25V21H6.75L17.81,9.93L14.06,6.18L3,17.25Z"
      />
    </symbol>
    <symbol
      xmlns="http://www.w3.org/2000/svg"
      viewBox="0 0 24 24"
      id="text-box"
    >
      <path
        d="M14,17H7V15H14M17,13H7V11H17M17,9H7V7H17M19,3H5C3.89,3 3,3.89 3,5V19A2,2 0 0,0 5,21H19A2,2 0 0,0 21,19V5C21,3.89 20.1,3 19,3Z"
      />
    </symbol>
    <symbol
      xmlns="http://www.w3.org/2000/svg"
      viewBox="0 0 24 24"
      id="text-box-edit"
    >
      <path
        d="M10 19.11L12.11 17H7V15H14V15.12L16.12 13H7V11H17V12.12L18.24 10.89C18.72 10.41 19.35 10.14 20.04 10.14C20.37 10.14 20.7 10.21 21 10.33V5C21 3.89 20.1 3 19 3H5C3.89 3 3 3.89 3 5V19C3 20.11 3.9 21 5 21H10V19.11M7 7H17V9H7V7M21.7 14.35L20.7 15.35L18.65 13.3L19.65 12.3C19.86 12.09 20.21 12.09 20.42 12.3L21.7 13.58C21.91 13.79 21.91 14.14 21.7 14.35M12 19.94L18.06 13.88L20.11 15.93L14.06 22H12V19.94Z"
      />
    </symbol>
    <symbol
      xmlns="http://www.w3.org/2000/svg"
      viewBox="0 0 24 24"
      id="view-dashboard"
    >
      <path d="M13,3V9H21V3M13,21H21V11H13M3,21H11V15H3M3,13H11V3H3V13Z" />
    </symbol>
  </defs>
</svg>
