<?xml version="1.0" encoding="utf-8" ?>
<!-- Material Design icons licensed under Pictogrammers Free License - https://pictogrammers.com/docs/general/license/ -->
<!-- https://github.com/Templarian/MaterialDesign/tree/master -->
<svg width="0" height="0" class="hidden">
  <defs>
    <symbol xmlns="http://www.w3.org/2000/svg" viewBox="0 0 24 24" id="eye">
      <path
        d="M12,9A3,3 0 0,0 9,12A3,3 0 0,0 12,15A3,3 0 0,0 15,12A3,3 0 0,0 12,9M12,17A5,5 0 0,1 7,12A5,5 0 0,1 12,7A5,5 0 0,1 17,12A5,5 0 0,1 12,17M12,4.5C7,4.5 2.73,7.61 1,12C2.73,16.39 7,19.5 12,19.5C17,19.5 21.27,16.39 23,12C21.27,7.61 17,4.5 12,4.5Z"
      />
    </symbol>
    <symbol xmlns="http://www.w3.org/2000/svg" viewBox="0 0 24 24" id="pencil">
      <path
        d="M20.71,7.04C21.1,6.65 21.1,6 20.71,5.63L18.37,3.29C18,2.9 17.35,2.9 16.96,3.29L15.12,5.12L18.87,8.87M3,17.25V21H6.75L17.81,9.93L14.06,6.18L3,17.25Z"
      />
    </symbol>
    <symbol
      xmlns="http://www.w3.org/2000/svg"
      viewBox="0 0 24 24"
      id="text-box"
    >
      <path
        d="M14,17H7V15H14M17,13H7V11H17M17,9H7V7H17M19,3H5C3.89,3 3,3.89 3,5V19A2,2 0 0,0 5,21H19A2,2 0 0,0 21,19V5C21,3.89 20.1,3 19,3Z"
      />
    </symbol>
    <symbol
      xmlns="http://www.w3.org/2000/svg"
      viewBox="0 0 24 24"
      id="text-box-edit"
    >
      <path
        d="M10 19.11L12.11 17H7V15H14V15.12L16.12 13H7V11H17V12.12L18.24 10.89C18.72 10.41 19.35 10.14 20.04 10.14C20.37 10.14 20.7 10.21 21 10.33V5C21 3.89 20.1 3 19 3H5C3.89 3 3 3.89 3 5V19C3 20.11 3.9 21 5 21H10V19.11M7 7H17V9H7V7M21.7 14.35L20.7 15.35L18.65 13.3L19.65 12.3C19.86 12.09 20.21 12.09 20.42 12.3L21.7 13.58C21.91 13.79 21.91 14.14 21.7 14.35M12 19.94L18.06 13.88L20.11 15.93L14.06 22H12V19.94Z"
      />
    </symbol>
    <symbol
      xmlns="http://www.w3.org/2000/svg"
      viewBox="0 0 24 24"
      id="view-dashboard"
    >
      <path d="M13,3V9H21V3M13,21H21V11H13M3,21H11V15H3M3,13H11V3H3V13Z" />
    </symbol>
    <symbol
      xmlns="http://www.w3.org/2000/svg"
      viewBox="0 0 24 24"
      id="export-variant"
    >
      <path
        d="M12,1L8,5H11V14H13V5H16M18,23H6C4.89,23 4,22.1 4,21V9A2,2 0 0,1 6,7H9V9H6V21H18V9H15V7H18A2,2 0 0,1 20,9V21A2,2 0 0,1 18,23Z"
      />
    </symbol>
    <symbol
      xmlns="http://www.w3.org/2000/svg"
      viewBox="0 0 24 24"
      id="file-pdf-box"
    >
      <path
        d="M19 3H5C3.9 3 3 3.9 3 5V19C3 20.1 3.9 21 5 21H19C20.1 21 21 20.1 21 19V5C21 3.9 20.1 3 19 3M9.5 11.5C9.5 12.3 8.8 13 8 13H7V15H5.5V9H8C8.8 9 9.5 9.7 9.5 10.5V11.5M14.5 13.5C14.5 14.3 13.8 15 13 15H10.5V9H13C13.8 9 14.5 9.7 14.5 10.5V13.5M18.5 10.5H17V11.5H18.5V13H17V15H15.5V9H18.5V10.5M12 10.5H13V13.5H12V10.5M7 10.5H8V11.5H7V10.5Z"
      />
    </symbol>
    <symbol
      xmlns="http://www.w3.org/2000/svg"
      viewBox="0 0 24 24"
      id="file-code"
    >
      <path
        d="M13,9H18.5L13,3.5V9M6,2H14L20,8V20A2,2 0 0,1 18,22H6C4.89,22 4,21.1 4,20V4C4,2.89 4.89,2 6,2M6.12,15.5L9.86,19.24L11.28,17.83L8.95,15.5L11.28,13.17L9.86,11.76L6.12,15.5M17.28,15.5L13.54,11.76L12.12,13.17L14.45,15.5L12.12,17.83L13.54,19.24L17.28,15.5Z"
      />
    </symbol>
    <symbol
      xmlns="http://www.w3.org/2000/svg"
      viewBox="0 0 24 24"
      id="magnify-plus"
    >
      <path
        d="M9,2A7,7 0 0,1 16,9C16,10.57 15.5,12 14.61,13.19L15.41,14H16L22,20L20,22L14,16V15.41L13.19,14.61C12,15.5 10.57,16 9,16A7,7 0 0,1 2,9A7,7 0 0,1 9,2M8,5V8H5V10H8V13H10V10H13V8H10V5H8Z"
      />
    </symbol>
    <symbol xmlns="http://www.w3.org/2000/svg" viewBox="0 0 24 24" id="wrap">
      <path
        d="M21,5H3V7H21V5M3,19H10V17H3V19M3,13H18C19,13 20,13.43 20,15C20,16.57 19,17 18,17H16V15L12,18L16,21V19H18C20.95,19 22,17.73 22,15C22,12.28 21,11 18,11H3V13Z"
      />
    </symbol>
    <symbol
      xmlns="http://www.w3.org/2000/svg"
      viewBox="0 0 24 24"
      id="wrap-disabled"
    >
      <path
        d="M16,7H3V5H16V7M3,19H16V17H3V19M22,12L18,9V11H3V13H18V15L22,12Z"
      />
    </symbol>
  </defs>
</svg>
